<svg xmlns="http://www.w3.org/2000/svg" width="512" height="512" viewBox="0 0 512 512" role="img" aria-label="Ícone Queijos WR">
  <defs>
    <linearGradient id="g" x1="0" x2="0" y1="0" y2="1"><stop offset="0" stop-color="#14542a"/><stop offset="1" stop-color="#072b16"/></linearGradient>
    <linearGradient id="q" x1="0" x2="1" y1="0" y2="1"><stop offset="0" stop-color="#ffe27a"/><stop offset="1" stop-color="#d99a12"/></linearGradient>
  </defs>
  <rect width="512" height="512" rx="96" fill="#efe2c8"/>
  <circle cx="256" cy="238" r="168" fill="#fff8e9" stroke="#3a1d12" stroke-width="18"/>
  <path d="M118 294c78-42 198-42 276 0v78c-80-34-196-34-276 0z" fill="url(#g)" stroke="#3a1d12" stroke-width="14"/>
  <path d="M168 230l88-82 96 82v72H168z" fill="#f7e6c4" stroke="#3a1d12" stroke-width="10"/>
  <path d="M150 230l106-96 112 96z" fill="#c74324" stroke="#3a1d12" stroke-width="10" stroke-linejoin="round"/>
  <rect x="225" y="246" width="62" height="56" rx="8" fill="#5a2c18"/>
  <circle cx="174" cy="324" r="38" fill="url(#q)" stroke="#3a1d12" stroke-width="8"/>
  <rect x="300" y="292" width="74" height="54" rx="10" fill="url(#q)" stroke="#3a1d12" stroke-width="8"/>
  <circle cx="324" cy="312" r="7" fill="#fff3c0"/><circle cx="352" cy="330" r="8" fill="#fff3c0"/>
  <text x="256" y="384" text-anchor="middle" font-family="Georgia, serif" font-size="74" font-weight="700" fill="#fff8e9" stroke="#3a1d12" stroke-width="3" paint-order="stroke">WR</text>
  <path d="M154 424h204" stroke="#c69214" stroke-width="9" stroke-linecap="round"/>
</svg>
